PathFileType  4	(X/Y/Z)
DataRate	CameraRate	NumFrames	NumMarkers	Units	OrigDataRate	OrigDataStartFrame	OrigNumFrames
  100.0 	  100.0 	    6 	     42 	mm 	  100.0 	      60 	    237
Frame#	Time	R.Shoulder			R.Clavicle			R.Bicep			R.Elbow			R.Forearm			R.Wrist			L.Shoulder			L.Clavicle			L.Scapula			L.Bicep			L.Elbow			L.Forearm			L.Wrist			R.ASIS			R.Iliac			S2			L.Iliac			L.ASIS			R.TH1			R.TH2			R.TH3			R.Knee			R.SH1			R.SH2			R.SH3			R.SH4			R.Ankle			R.Heel			R.MT5			L.TH1			L.TH2			L.TH3			L.TH4			L.Knee			L.SH1			L.SH2			L.SH3			L.Ankle			L.Heel			L.MT5			R_HJC			L_HJC			
		X1	Y1	Z1	X2	Y2	Z2	X3	Y3	Z3	X4	Y4	Z4	X5	Y5	Z5	X6	Y6	Z6	X7	Y7	Z7	X8	Y8	Z8	X9	Y9	Z9	X10	Y10	Z10	X11	Y11	Z11	X12	Y12	Z12	X13	Y13	Z13	X14	Y14	Z14	X15	Y15	Z15	X16	Y16	Z16	X17	Y17	Z17	X18	Y18	Z18	X19	Y19	Z19	X20	Y20	Z20	X21	Y21	Z21	X22	Y22	Z22	X23	Y23	Z23	X24	Y24	Z24	X25	Y25	Z25	X26	Y26	Z26	X27	Y27	Z27	X28	Y28	Z28	X29	Y29	Z29	X30	Y30	Z30	X31	Y31	Z31	X32	Y32	Z32	X33	Y33	Z33	X34	Y34	Z34	X35	Y35	Z35	X36	Y36	Z36	X37	Y37	Z37	X38	Y38	Z38	X39	Y39	Z39	X40	Y40	Z40	X41	Y41	Z41	X42	Y42	Z42	

60	0.59000	-793.756	1396.838	-5.468	-739.809	1373.635	-165.366	-752.184	1232.601	12.861	-786.554	1093.301	84.494	-668.369	1002.342	52.414	-624.614	908.931	90.264	-878.129	1395.165	-379.721	-741.440	1373.381	-232.201	-958.171	1288.497	-230.394	-868.475	1225.913	-397.139	-982.206	1112.907	-424.619	-947.707	977.391	-448.565	-1007.517	871.824	-470.797	-750.334	928.463	-42.001	-852.454	1009.736	-31.285	-933.886	946.345	-199.896	-838.427	1007.523	-353.124	-740.188	933.470	-319.755	-761.150	682.828	-76.134	-786.539	602.251	-96.111	-906.273	618.480	-11.988	-956.668	480.514	-54.477	-946.544	329.928	-92.639	-978.887	264.713	-103.499	-1044.789	369.403	-47.207	-1077.925	303.801	-58.251	-1113.063	111.399	-109.613	-1180.421	75.242	-173.513	-1005.661	33.425	-68.450	-677.275	751.767	-342.172	-649.821	672.809	-328.776	-812.132	696.901	-387.211	-780.657	615.344	-371.812	-685.210	486.712	-349.722	-594.202	390.357	-338.564	-562.020	321.895	-337.086	-664.514	270.320	-347.275	-522.477	101.403	-327.030	-552.482	29.878	-258.668	-389.602	104.308	-356.379	-823.892	837.348	-86.384	-816.129	836.621	-296.046
61	0.60000	-781.054	1395.309	-6.875	-727.586	1372.067	-166.868	-739.260	1231.093	11.279	-773.062	1091.857	83.330	-654.564	1001.476	50.529	-610.149	908.397	88.255	-866.637	1393.389	-380.884	-729.379	1371.748	-233.733	-946.088	1286.780	-231.357	-857.591	1224.210	-398.438	-972.241	1111.864	-425.446	-939.299	976.101	-449.958	-1000.377	871.174	-471.662	-737.553	926.907	-42.811	-839.818	1008.206	-32.304	-921.348	944.596	-200.973	-826.464	1005.951	-354.177	-727.978	931.960	-320.867	-749.356	681.023	-76.573	-775.148	600.453	-96.289	-895.058	617.625	-12.546	-946.556	479.964	-54.496	-939.469	328.910	-92.554	-973.215	264.407	-103.276	-1036.725	370.546	-46.909	-1071.288	305.672	-57.904	-1110.816	113.931	-108.900	-1179.110	79.302	-172.739	-1005.186	33.429	-68.305	-664.328	751.642	-342.395	-636.414	672.954	-328.572	-798.197	695.576	-388.273	-766.299	614.421	-372.552	-670.445	486.069	-349.657	-580.895	388.844	-338.086	-549.269	320.149	-336.214	-652.100	269.575	-346.749	-512.008	99.804	-325.721	-542.320	28.946	-257.187	-379.163	102.030	-354.964	-811.140	835.802	-87.385	-803.726	835.043	-297.061
62	0.61000	-768.243	1393.960	-8.374	-715.318	1370.699	-168.496	-726.325	1229.732	9.610	-759.706	1090.572	82.017	-640.978	1000.628	48.599	-596.037	907.811	86.178	-855.124	1391.836	-382.080	-717.282	1370.337	-235.385	-933.936	1285.256	-232.316	-846.566	1222.749	-399.809	-961.963	1110.946	-426.388	-930.338	974.981	-451.359	-992.508	870.615	-472.612	-724.546	925.481	-43.703	-826.927	1006.794	-33.376	-908.645	942.936	-202.035	-814.527	1004.580	-355.251	-715.599	930.807	-322.076	-737.202	679.379	-77.234	-763.286	598.792	-96.712	-883.277	616.704	-13.190	-935.771	479.337	-54.481	-931.932	327.860	-92.442	-967.148	264.133	-103.029	-1028.075	371.751	-46.548	-1064.138	307.686	-57.513	-1108.236	116.759	-108.078	-1177.522	83.871	-171.873	-1004.626	33.475	-68.145	-650.812	752.605	-342.561	-621.989	674.365	-328.196	-783.298	694.499	-389.475	-750.540	613.949	-373.337	-654.722	485.841	-349.642	-567.385	386.892	-337.570	-536.957	317.714	-335.252	-640.517	269.106	-346.318	-504.041	97.680	-324.408	-535.461	28.025	-255.893	-371.237	97.966	-353.366	-798.050	834.400	-88.485	-791.122	833.688	-298.177
63	0.62000	-755.327	1392.795	-9.969	-703.015	1369.545	-170.239	-713.402	1228.527	7.871	-746.501	1089.463	80.567	-627.630	999.813	46.635	-582.287	907.178	84.039	-843.610	1390.524	-383.296	-705.149	1369.171	-237.150	-921.692	1283.896	-233.254	-835.415	1221.550	-401.248	-951.406	1110.175	-427.423	-920.818	974.049	-452.773	-983.907	870.150	-473.653	-711.301	924.173	-44.678	-813.781	1005.490	-34.485	-895.754	941.426	-203.075	-802.497	1003.451	-356.336	-702.967	930.037	-323.362	-724.700	677.879	-78.070	-750.969	597.262	-97.342	-870.965	615.725	-13.923	-924.328	478.648	-54.457	-923.949	326.807	-92.273	-960.689	263.913	-102.746	-1018.882	373.041	-46.181	-1056.503	309.867	-57.136	-1105.285	119.905	-107.207	-1175.582	88.976	-170.990	-1003.977	33.601	-67.957	-636.741	754.331	-342.802	-606.773	676.636	-327.836	-767.685	693.742	-390.791	-733.837	613.894	-374.161	-638.452	485.931	-349.717	-553.836	384.649	-337.100	-525.081	314.817	-334.321	-629.641	268.862	-346.036	-497.920	95.284	-323.222	-531.163	27.359	-254.866	-365.198	92.566	-351.644	-784.633	833.143	-89.695	-778.266	832.590	-299.406
64	0.63000	-742.324	1391.818	-11.657	-690.676	1368.624	-172.079	-700.513	1227.481	6.068	-733.458	1088.534	78.994	-614.529	999.042	44.645	-568.915	906.500	81.852	-832.110	1389.460	-384.527	-692.986	1368.264	-239.017	-909.342	1282.673	-234.173	-824.149	1220.614	-402.747	-940.607	1109.556	-428.524	-910.757	973.313	-454.211	-974.581	869.777	-474.798	-697.809	922.966	-45.731	-800.391	1004.278	-35.611	-882.658	940.129	-204.103	-790.241	1002.620	-357.418	-690.017	929.657	-324.699	-711.828	676.508	-79.011	-738.196	595.849	-98.098	-858.157	614.695	-14.732	-912.249	477.912	-54.438	-915.521	325.780	-92.016	-953.825	263.776	-102.404	-1009.180	374.442	-45.852	-1048.394	312.246	-56.810	-1101.917	123.393	-106.339	-1173.205	94.655	-170.162	-1003.242	33.850	-67.733	-622.164	756.455	-343.244	-591.048	679.308	-327.701	-751.650	693.374	-392.218	-716.713	614.211	-375.051	-622.060	486.253	-349.952	-540.418	382.308	-336.788	-513.621	311.744	-333.564	-619.317	268.823	-345.962	-492.979	92.866	-322.280	-528.617	27.163	-254.136	-360.444	86.310	-349.884	-770.922	832.028	-91.031	-765.120	831.787	-300.758
65	0.64000	-729.265	1391.036	-13.432	-678.303	1367.953	-173.999	-687.673	1226.598	4.196	-720.586	1087.789	77.306	-601.682	998.320	42.639	-555.930	905.783	79.638	-820.624	1388.643	-385.783	-680.800	1367.629	-240.976	-896.881	1281.572	-235.090	-812.774	1219.930	-404.301	-929.596	1109.089	-429.672	-900.189	972.777	-455.693	-964.545	869.488	-476.061	-684.063	921.847	-46.846	-786.770	1003.151	-36.733	-869.349	939.100	-205.141	-777.645	1002.144	-358.486	-676.722	929.662	-326.058	-698.546	675.252	-79.977	-724.940	594.537	-98.885	-844.869	613.622	-15.597	-899.542	477.146	-54.423	-906.624	324.801	-91.649	-946.521	263.756	-101.979	-998.976	375.978	-45.593	-1039.798	314.847	-56.556	-1098.075	127.253	-105.516	-1170.293	100.949	-169.447	-1002.414	34.253	-67.480	-607.178	758.645	-343.998	-575.102	681.964	-327.968	-735.493	693.445	-393.768	-699.663	614.849	-376.057	-605.920	486.747	-350.424	-527.258	380.085	-336.748	-502.529	308.789	-333.113	-609.377	269.005	-346.165	-488.660	90.629	-321.671	-527.088	27.536	-253.699	-356.482	79.625	-348.189	-756.965	831.053	-92.501	-751.668	831.313	-302.242
